<svg width="26" height="26" viewBox="0 0 26 26" fill="none" xmlns="http://www.w3.org/2000/svg">
<g clip-path="url(#clip0_246_3446)">
<path d="M23.7005 13.4935V12.5065H26C25.9228 10.5048 25.3989 8.61336 24.5166 6.94252L22.5205 8.0895L22.0297 7.23478L24.0259 6.0878C22.9782 4.41697 21.5555 2.99979 19.8846 1.95758L18.7432 3.95928L17.8884 3.4685L19.0299 1.46681C17.3646 0.595546 15.4897 0.0716861 13.499 0V2.29947H12.512V0C10.5103 0.0716861 8.61888 0.60106 6.94804 1.48335L8.09502 3.47953L7.2403 3.97031L6.09332 1.97413C4.42248 3.02185 3.0053 4.44454 1.9631 6.11538L3.95928 7.25684L3.4685 8.11156L1.46681 6.9701C0.595546 8.64093 0.0716861 10.5158 0 12.5065H2.29947V13.4935H0C0.0772004 15.4952 0.60106 17.3866 1.48335 19.0575L3.47953 17.9105L3.97031 18.7652L1.97413 19.9122C3.02185 21.583 4.44454 23.0002 6.11538 24.0424L7.25684 22.0407L8.11156 22.5315L6.96458 24.5332C8.6299 25.4045 10.5048 25.9283 12.4954 26V23.7005H13.4825V26C15.4842 25.9283 17.3701 25.3989 19.0464 24.5166L17.8995 22.5205L18.7542 22.0297L19.9012 24.0259C21.572 22.9782 22.9892 21.5555 24.0314 19.8846L22.0297 18.7432L22.5205 17.8884L24.5222 19.0299C25.3934 17.3646 25.9118 15.4897 25.989 13.499H23.6895L23.7005 13.4935ZM20.0721 19.2505C19.8295 19.5372 19.3994 19.5703 19.1071 19.3277L13.3336 14.4199C13.2123 14.4585 13.0855 14.4861 12.9476 14.4861C12.5561 14.4861 12.2087 14.3097 11.9716 14.0339L6.80467 17.0282C6.66129 17.1109 6.47381 17.0613 6.39109 16.9179C6.30838 16.7745 6.35801 16.5871 6.50138 16.5043L11.6959 13.4935C11.6738 13.3998 11.6573 13.3005 11.6573 13.2013C11.6573 12.7381 11.8999 12.341 12.2638 12.1094V6.82672C12.2638 6.45175 12.5671 6.14295 12.9476 6.14295C13.3281 6.14295 13.6314 6.45175 13.6314 6.82672V12.1094C13.9953 12.3355 14.238 12.7381 14.238 13.2013C14.238 13.2674 14.2269 13.3226 14.2214 13.3832C15.8206 14.7453 19.9949 18.291 19.9949 18.291C20.1548 18.4288 20.2375 18.6163 20.2375 18.8093C20.2375 18.9637 20.1824 19.1236 20.0721 19.2505Z" fill="white"/>
</g>
<defs>
<clipPath id="clip0_246_3446">
<rect width="26" height="26" fill="white"/>
</clipPath>
</defs>
</svg>
