<svg width="25" height="23" viewBox="0 0 25 23" fill="none" xmlns="http://www.w3.org/2000/svg">
<g clip-path="url(#clip0_246_3448)">
<path d="M12.6824 17.2723H22.5504L21.2821 15.1463C21.0737 14.8124 20.7436 14.6016 20.3787 14.6016H13.9507L12.665 17.2723H12.6824Z" fill="white"/>
<path d="M12.6817 18.5039L11.0312 23.002H23.8527C24.7561 23.002 25.2946 22.0005 24.8256 21.2274L23.1925 18.5039H12.6817Z" fill="white"/>
<path d="M12.6819 14.6016H4.86401C4.46442 14.6016 4.09959 14.8124 3.89111 15.1638L0.155876 21.3136C-0.295826 22.0515 0.242742 23.0003 1.09403 23.0003H9.24205L12.6646 14.6016H12.6819Z" fill="white"/>
<path d="M12.5084 0C8.65158 0 5.52441 3.16272 5.52441 7.04584C5.52441 10.929 12.4911 18.6952 12.4911 18.6952C12.4911 18.6952 19.4577 10.929 19.4577 7.04584C19.4577 3.16272 16.3479 0 12.5084 0ZM12.5084 8.59205C11.1186 8.59205 9.97195 7.44996 9.97195 6.02674C9.97195 4.60351 11.1012 3.46142 12.5084 3.46142C13.9157 3.46142 15.0449 4.60351 15.0449 6.02674C15.0449 7.44996 13.9157 8.59205 12.5084 8.59205Z" fill="white"/>
</g>
<defs>
<clipPath id="clip0_246_3448">
<rect width="25" height="23" fill="white"/>
</clipPath>
</defs>
</svg>
