<svg width="13" height="25" viewBox="0 0 13 25" fill="none" xmlns="http://www.w3.org/2000/svg">
<g clip-path="url(#clip0_246_3454)">
<path d="M5.50215 9.66872C6.34146 10.574 8.33716 11.171 9.45624 11.8451C10.7618 12.5578 11.8436 13.4052 12.4591 14.7727C13.9326 18.4322 11.7131 22.1302 7.75897 22.3613V25H5.72597V22.3421C2.14491 21.9761 0 19.7034 0 16.0054H4.28981C4.28981 17.7966 5.01722 19.0485 6.75179 19.0678C8.63558 19.2026 9.10187 16.641 8.11334 15.4468C7.32999 14.5031 5.16643 13.906 4.066 13.2704C2.7604 12.5963 1.65997 11.7296 1.08178 10.3814C-0.391679 6.62558 2.01435 3.02388 5.98709 2.7735V0H8.02009V2.81202C9.56815 3.04314 10.7991 3.71726 11.6758 4.79584C12.571 5.87442 13 7.26117 13 8.91757H8.69153C8.69153 8.01233 8.52367 7.29969 8.18795 6.81818C7.08752 5.33513 4.8307 6.16333 4.97991 8.12789C4.97991 8.76348 5.14778 9.28351 5.5208 9.66872H5.50215Z" fill="white"/>
</g>
<defs>
<clipPath id="clip0_246_3454">
<rect width="13" height="25" fill="white"/>
</clipPath>
</defs>
</svg>
